<?xml version="1.0" encoding="UTF-8"?>
<!DOCTYPE svg PUBLIC "-//W3C//DTD SVG 1.1//EN" "http://www.w3.org/Graphics/SVG/1.1/DTD/svg11.dtd">
<!-- Creator: CorelDRAW -->
<svg xmlns="http://www.w3.org/2000/svg" xml:space="preserve" width="16.9332mm" height="16.9332mm" style="shape-rendering:geometricPrecision; text-rendering:geometricPrecision; image-rendering:optimizeQuality; fill-rule:evenodd; clip-rule:evenodd"
viewBox="0 0 1.47814 1.47814"
 xmlns:xlink="http://www.w3.org/1999/xlink">
 <defs>
  <style type="text/css">
   <![CDATA[
    .fil0 {fill:#F48F1D}
   ]]>
  </style>
 </defs>
 <g id="Слой_x0020_1">
  <metadata id="CorelCorpID_0Corel-Layer"/>
  <g id="_234709088">
   <path id="_234704312" class="fil0" d="M0.739085 0c0.408143,0 0.739051,0.330907 0.739051,0.739085 0,0.408143 -0.330907,0.739051 -0.739051,0.739051 -0.408178,0 -0.739085,-0.330907 -0.739085,-0.739051 0,-0.408178 0.330907,-0.739085 0.739085,-0.739085zm0 0.105335c0.349981,0 0.633715,0.283735 0.633715,0.63375 0,0.349981 -0.283735,0.633715 -0.633715,0.633715 -0.350015,0 -0.63375,-0.283735 -0.63375,-0.633715 0,-0.350015 0.283735,-0.63375 0.63375,-0.63375z"/>
   <path id="_234710096" class="fil0" d="M0.599208 0.264941l0.0865153 0 0 0.14892 0.0709511 0.000838005 0 -0.149758 0.0865153 0 0 0.150789 0.0549679 0.000654691c0.0988497,0.00033171 0.160687,0.0914648 0.158776,0.166335 -0.0019117,0.0748705 -0.0223206,0.0890991 -0.0661587,0.122855 0.0848131,0.037588 0.118927,0.0798112 0.11719,0.162556 -0.00172839,0.0827443 -0.043262,0.189057 -0.204133,0.202247l-0.0606419 0.000724525 0 0.142077 -0.0865153 0 0 -0.141055 -0.0709511 0.000838005 0 0.140217 -0.0865153 0 0 -0.139187 -0.173589 0.0020601c0.00796978,-0.0408877 0.0112869,-0.0734127 0.0128232,-0.10963 0.0226872,0 0.0419875,0 0.0646748,0 0.0201383,-0.00110861 0.0327957,-0.0013443 0.0347336,-0.020051 0,-0.13319 0,-0.266381 0,-0.399571 -9.60214e-005,-0.027078 -0.0147,-0.0442921 -0.0438294,-0.0438294 -0.0240577,0 -0.0481242,0 -0.0721819,0 -0.000628504,-0.030753 -0.00125701,-0.0615061 -0.00189424,-0.0922591l0.179263 0.00212993 0 -0.147899zm0.0859392 0.246862c-0.000384086,0.0582588 -0.0007769,0.116518 -0.00116099,0.174768 0.203993,0.0107631 0.211588,-0.0586691 0.212068,-0.0955937 0.000480107,-0.0369159 -0.0153722,-0.0868645 -0.210907,-0.079174zm0.000183314 0.257512c-0.00044519,0.067922 -0.00089038,0.135844 -0.0013443,0.203766 0.237854,0.0125526 0.246705,-0.0684109 0.247264,-0.111455 0.00055867,-0.0430438 -0.0179298,-0.101276 -0.24592,-0.0923115z"/>
  </g>
 </g>
</svg>
