<?xml version="1.0" encoding="UTF-8"?>
<!DOCTYPE svg PUBLIC "-//W3C//DTD SVG 1.1//EN" "http://www.w3.org/Graphics/SVG/1.1/DTD/svg11.dtd">
<!-- Creator: CorelDRAW X7 -->
<svg xmlns="http://www.w3.org/2000/svg" xml:space="preserve" width="16.9333mm" height="16.9333mm" version="1.1" style="shape-rendering:geometricPrecision; text-rendering:geometricPrecision; image-rendering:optimizeQuality; fill-rule:evenodd; clip-rule:evenodd"
viewBox="0 0 159 159"
 xmlns:xlink="http://www.w3.org/1999/xlink">
 <defs>
  <style type="text/css">
   <![CDATA[
    .fil1 {fill:#FBBE07}
    .fil2 {fill:#393185}
    .fil0 {fill:#393185;fill-rule:nonzero}
   ]]>
  </style>
 </defs>
 <g id="Layer_x0020_1">
  <metadata id="CorelCorpID_0Corel-Layer"/>
  <g id="_844781808">
   <path class="fil0" d="M102 78c3,1 4,2 6,3 1,1 3,2 3,4 1,1 2,2 2,4 1,1 1,2 1,4 0,2 -1,5 -2,7 -1,2 -3,4 -5,5 -2,1 -4,3 -7,3 -3,1 -6,2 -9,2l-1 0 0 10c18,-5 31,-21 31,-40 0,-20 -13,-36 -31,-41l0 11c7,0 12,2 16,4 4,3 6,7 6,12 0,1 -1,2 -1,3 0,1 -1,2 -1,3 -1,1 -2,2 -3,4 -1,1 -3,2 -5,2l0 0zm-12 46c-1,0 -1,0 -1,0l0 0c-1,0 -1,0 -1,0l0 0c-1,0 -1,0 -1,0l-1 0c0,0 0,0 0,0 -1,0 -1,0 -1,0 0,1 0,1 0,1 -1,0 -1,0 -1,0l0 0c-1,0 -1,0 -1,0l-1 0c0,0 -1,0 -2,0 -2,0 -4,0 -5,0l-1 0 0 -1c0,0 0,0 0,0l-1 0 0 0 0 0c0,0 0,0 -1,0l0 0 0 0 0 0 0 0c0,0 -1,0 -1,0l0 0 0 0 0 0c0,0 -1,0 -1,0l0 0 0 0 0 0c0,0 -1,0 -1,0l0 0 0 0 0 -1c-20,-4 -35,-22 -35,-43 0,-22 15,-39 35,-44l0 0 0 0 0 0c0,0 1,0 1,0l0 0 0 0 0 0c0,-1 1,-1 1,-1l0 0 0 0 0 0c0,0 1,0 1,0l0 0 0 0 0 0 0 0c1,0 1,0 1,0l0 0 0 0 1 0c0,0 0,0 0,0l0 0 1 0c1,0 3,-1 5,-1 1,0 2,1 2,1l1 0c0,0 0,0 1,0l0 0c0,0 0,0 1,0 0,0 0,0 0,0 0,0 0,0 1,0 0,0 0,0 0,0l1 0c0,0 0,0 1,0l0 0c0,0 0,0 1,0l0 0c0,0 0,1 1,1 20,4 35,22 35,44 0,21 -15,39 -35,44zm-8 -3l0 -11 -7 0 0 11c2,0 3,0 5,0 1,0 2,0 2,0zm-14 -1l0 -10 -17 0c5,4 10,8 17,10zm-18 -11l0 -8 8 0 0 -43 -7 0 0 -8 17 0 0 -10c-17,5 -30,21 -30,40 0,11 5,22 12,29zm25 -71l0 12 7 0 0 -12c0,0 -1,0 -2,0 -2,0 -3,0 -5,0zm-2 45l0 18 13 0c4,0 7,-1 9,-2 2,-2 3,-4 3,-7 0,-2 -1,-5 -3,-6 -2,-2 -5,-3 -9,-3l-13 0zm0 -25l0 17 12 0c4,0 6,-1 8,-2 2,-2 3,-4 3,-6 0,-3 -1,-5 -2,-6 -2,-2 -5,-3 -9,-3l-12 0z"/>
   <path class="fil1" d="M80 7c40,0 73,32 73,73 0,40 -33,73 -73,73 -41,0 -73,-33 -73,-73 0,-41 32,-73 73,-73zm0 23c27,0 50,22 50,50 0,27 -23,50 -50,50 -28,0 -50,-23 -50,-50 0,-28 22,-50 50,-50z"/>
   <path class="fil2" d="M80 0c44,0 79,36 79,80 0,44 -35,79 -79,79 -44,0 -80,-35 -80,-79 0,-44 36,-80 80,-80zm0 3c42,0 76,34 76,77 0,42 -34,76 -76,76 -43,0 -77,-34 -77,-76 0,-43 34,-77 77,-77z"/>
  </g>
 </g>
</svg>
