<?xml version="1.0" encoding="UTF-8"?>
<!DOCTYPE svg PUBLIC "-//W3C//DTD SVG 1.1//EN" "http://www.w3.org/Graphics/SVG/1.1/DTD/svg11.dtd">
<!-- Creator: CorelDRAW -->
<svg xmlns="http://www.w3.org/2000/svg" xml:space="preserve" width="16.9332mm" height="16.9332mm" style="shape-rendering:geometricPrecision; text-rendering:geometricPrecision; image-rendering:optimizeQuality; fill-rule:evenodd; clip-rule:evenodd"
viewBox="0 0 1.5416 1.5416"
 xmlns:xlink="http://www.w3.org/1999/xlink">
 <defs>
  <style type="text/css">
   <![CDATA[
    .fil1 {fill:#9D9E9E}
    .fil3 {fill:#B2B3B3}
    .fil2 {fill:#FEFEFE}
    .fil0 {fill:#010101;fill-rule:nonzero}
   ]]>
  </style>
 </defs>
<symbol id="Fm4-477-0" viewBox="21.986 -14.0548 1.18829 1.67352">
 <polygon class="fil0" points="21.986,-13.3532 21.986,-12.3813 23.1743,-14.0548 "/>
</symbol>
<symbol id="Fm0-469-0" viewBox="20.7984 -14.8198 2.37518 1.24177">
 <polygon class="fil0" points="21.986,-14.8198 20.7984,-14.28 21.986,-13.5781 23.1736,-14.28 "/>
</symbol>
<symbol id="Fm1-471-0" viewBox="20.7985 -16.2506 1.18759 2.67248">
 <polygon class="fil0" points="20.7985,-14.28 21.986,-13.5781 21.986,-14.8198 21.986,-16.2506 "/>
</symbol>
<symbol id="Fm2-473-0" viewBox="21.986 -16.2506 1.18759 2.67248">
 <polygon class="fil0" points="21.986,-16.2506 21.986,-14.8198 21.986,-13.5781 23.1736,-14.28 "/>
</symbol>
<symbol id="Fm3-475-0" viewBox="20.7985 -14.0549 1.18759 1.67352">
 <polygon class="fil0" points="20.7985,-14.0549 21.986,-12.3813 21.986,-13.3532 "/>
</symbol>
 <g id="Слой_x0020_1">
  <metadata id="CorelCorpID_0Corel-Layer"/>
  <g id="_78941672">
   <path id="_78942032" class="fil1" d="M0.770799 0c0.425703,0 0.770799,0.345096 0.770799,0.770799 0,0.425703 -0.345096,0.770799 -0.770799,0.770799 -0.425703,0 -0.770799,-0.345096 -0.770799,-0.770799 0,-0.425703 0.345096,-0.770799 0.770799,-0.770799z"/>
   <path id="_78942224" class="fil2" d="M0.770799 0.073005c0.385381,0 0.697794,0.312413 0.697794,0.697794 0,0.385381 -0.312413,0.697794 -0.697794,0.697794 -0.385381,0 -0.697794,-0.312413 -0.697794,-0.697794 0,-0.385381 0.312413,-0.697794 0.697794,-0.697794zm0 0.0973399c0.331622,0 0.600454,0.268832 0.600454,0.600454 0,0.331622 -0.268832,0.600454 -0.600454,0.600454 -0.331622,0 -0.600454,-0.268832 -0.600454,-0.600454 0,-0.331622 0.268832,-0.600454 0.600454,-0.600454z"/>
   <g>
    <path id="_78942488" class="fil2" d="M1.2677 1.11299c-0.100308,0.1454 -0.262769,0.244606 -0.449018,0.259245l0.449018 -0.259245z"/>
    <path id="_78942680" class="fil2" d="M1.37396 0.785001c-0.000901296,0.0385736 -0.00544419,0.076246 -0.0132554,0.112707l-0.774987 0.447443c-0.0363887,-0.0117168 -0.0712479,-0.0268113 -0.104241,-0.0448827l0.892483 -0.515268z"/>
    <path id="_78942872" class="fil2" d="M1.33046 0.545147c0.0113618,0.0281314 0.0206752,0.0573188 0.0277217,0.0873711l-1.00068 0.57774c-0.0222775,-0.0209483 -0.0429527,-0.0435808 -0.0618344,-0.0676791l1.03479 -0.597432z"/>
    <path id="_78943064" class="fil2" d="M1.20033 0.347199c0.0229512,0.0232698 0.0440269,0.0483878 0.0629724,0.0751262l-1.04065 0.600818c-0.0136014,-0.0294787 -0.0248903,-0.0602503 -0.0336393,-0.0920596l1.01132 -0.583885z"/>
    <path id="_78943256" class="fil2" d="M0.984916 0.206597c0.0339488,0.0129004 0.066441,0.0287686 0.0971397,0.0472953l-0.914478 0.527977c-6.3728e-005,-0.00368712 -0.000100144,-0.00737424 -0.000100144,-0.0110705 0,-0.0329292 0.00267658,-0.0652301 0.00775661,-0.0967209l0.809682 -0.467481z"/>
    <path id="_78943448" class="fil2" d="M0.770799 0.167477l0.00198467 9.104e-006 -0.525638 0.303473c0.104059,-0.181333 0.299585,-0.303482 0.523653,-0.303482z"/>
   </g>
   <polygon id="_78942464" class="fil3" points="0.473608,0.969676 0.488593,0.910755 0.389287,0.951905 0.431357,0.813606 0.522979,0.775579 0.633629,0.340544 0.914597,0.340544 0.837003,0.645219 0.94779,0.599234 0.910163,0.736067 0.802508,0.780677 0.754376,0.969676 1.15417,0.969676 1.09672,1.15076 0.427587,1.15076 0.47329,0.969676 "/>
   <polygon id="_78943808" class="fil1" points="0.46851,0.963112 0.479007,0.921825 0.378954,0.963285 0.425985,0.808726 0.517426,0.770772 0.628531,0.33398 0.923045,0.33398 0.846608,0.63413 0.957686,0.588027 0.915644,0.740902 0.808062,0.785484 0.762824,0.963112 1.16314,0.963112 1.10153,1.15733 0.419166,1.15733 0.468173,0.963112 "/>
   <polygon id="_78944000" class="fil2" points="0.486481,0.986227 0.512783,0.882815 0.415315,0.9232 0.444921,0.825897 0.536972,0.787687 0.646502,0.357095 0.893303,0.357095 0.812805,0.673186 0.922854,0.627511 0.896352,0.723877 0.788515,0.76856 0.733081,0.986227 1.13155,0.986227 1.08461,1.13421 0.6954,1.13421 0.448836,1.13421 0.486181,0.986227 "/>
  </g>
 </g>
</svg>
