<?xml version="1.0" encoding="UTF-8"?>
<!DOCTYPE svg PUBLIC "-//W3C//DTD SVG 1.1//EN" "http://www.w3.org/Graphics/SVG/1.1/DTD/svg11.dtd">
<!-- Creator: CorelDRAW X7 -->
<svg xmlns="http://www.w3.org/2000/svg" xml:space="preserve" width="16.9333mm" height="16.9333mm" version="1.1" style="shape-rendering:geometricPrecision; text-rendering:geometricPrecision; image-rendering:optimizeQuality; fill-rule:evenodd; clip-rule:evenodd"
viewBox="0 0 155 155"
 xmlns:xlink="http://www.w3.org/1999/xlink">
 <defs>
  <style type="text/css">
   <![CDATA[
    .fil0 {fill:#53AE94}
    .fil1 {fill:white}
   ]]>
  </style>
 </defs>
 <g id="Layer_x0020_1">
  <metadata id="CorelCorpID_0Corel-Layer"/>
  <g id="_1100808464">
   <path class="fil0" d="M77 0c43,0 78,35 78,77 0,43 -35,78 -78,78 -42,0 -77,-35 -77,-78 0,-42 35,-77 77,-77z"/>
   <g>
    <path class="fil1" d="M87 67l0 -11 26 0 0 -18 -71 0 0 18 26 0 0 11c-21,1 -38,5 -38,10 0,6 17,10 38,11l0 37 19 0 0 -37c21,-1 37,-5 37,-11 0,-5 -16,-9 -37,-10l0 0zm0 18l0 0c-1,0 -3,0 -9,0 -5,0 -9,0 -10,0l0 0c-19,-1 -33,-5 -33,-8 0,-4 14,-8 33,-9l0 13c1,0 5,1 10,1 6,0 8,-1 9,-1l0 -13c19,1 33,5 33,9 0,3 -14,7 -33,8l0 0zm0 0l0 0 0 0z"/>
   </g>
  </g>
 </g>
</svg>
