<?xml version="1.0" encoding="UTF-8"?>
<!DOCTYPE svg PUBLIC "-//W3C//DTD SVG 1.1//EN" "http://www.w3.org/Graphics/SVG/1.1/DTD/svg11.dtd">
<!-- Creator: CorelDRAW X7 -->
<svg xmlns="http://www.w3.org/2000/svg" xml:space="preserve" width="16.9332mm" height="16.9332mm" version="1.1" style="shape-rendering:geometricPrecision; text-rendering:geometricPrecision; image-rendering:optimizeQuality; fill-rule:evenodd; clip-rule:evenodd"
viewBox="0 0 264 264"
 xmlns:xlink="http://www.w3.org/1999/xlink">
 <defs>
  <style type="text/css">
   <![CDATA[
    .fil0 {fill:#2B2A29}
    .fil1 {fill:#FEC033}
    .fil2 {fill:#2B2A29;fill-rule:nonzero}
   ]]>
  </style>
 </defs>
 <g id="Layer_x0020_1">
  <metadata id="CorelCorpID_0Corel-Layer"/>
  <g id="_850732144">
   <circle class="fil0" cx="132" cy="132" r="132"/>
   <circle class="fil1" cx="132" cy="132" r="111"/>
   <path class="fil2" d="M175 191c0,3 -2,4 -5,4l-25 0 0 10c0,2 -1,3 -3,3l-20 0c-2,0 -3,-1 -3,-3l0 -10 -22 0c-3,0 -5,0 -6,-2 -1,-1 -2,-3 -2,-5l0 -6c0,-1 0,-2 1,-4 0,-2 1,-3 2,-4 6,-13 13,-26 21,-39 8,-14 15,-27 22,-39 0,-1 0,-1 0,-2 0,-1 -1,-1 -2,-1l-35 0c-3,0 -4,-2 -4,-5l0 -17c0,-2 0,-3 1,-4 1,0 2,0 4,0l20 0 0 -8c0,-2 1,-3 3,-3l20 0c2,0 3,1 3,3l0 8 21 0c4,0 6,2 6,5l0 9c0,2 0,4 -1,5 -1,2 -1,3 -2,5 -3,5 -6,12 -10,18 -3,6 -7,13 -11,19 -3,7 -7,13 -11,19 -3,7 -7,13 -10,19 0,1 0,1 0,2 0,0 0,1 1,1l42 0c2,0 3,0 3,1 1,0 2,1 2,3l0 18z"/>
  </g>
 </g>
</svg>
